PathFileType   4   (X/Y/Z)
DataRate	CameraRate	NumFrames	NumMarkers	Units	OrigDataRate	OrigDataStartFrame	OrigNumFrames
120.0	120.0	9	37	mm	120.0	84	111
Frame#	Time	midhip	hip_r	hip_l	knee_r	knee_l	ankle_r	ankle_l	midasis	asis_r	asis_l	psis_r	psis_l	epicondLat_r	epicondLat_l	epicondMed_r	epicondMed_l	malleolusLat_r	malleolusLat_l	malleolusMedv_r	malleolusMedv_l	neck	subclavicle_r	subclavicle_l	sternalnotch	xyphoidprocess	thighwand_r	thighwand_l	upperleg1_r	upperleg1_l	upperleg2_r	upperleg2_l	shankwand_r	shankwand_l	lowerleg1_r	lowerleg1_l	toe_r	toe_l
 	 	X1	Y1	Z1	X2	Y2	Z2	X3	Y3	Z3	X4	Y4	Z4	X5	Y5	Z5	X6	Y6	Z6	X7	Y7	Z7	X8	Y8	Z8	X9	Y9	Z9	X10	Y10	Z10	X11	Y11	Z11	X12	Y12	Z12	X13	Y13	Z13	X14	Y14	Z14	X15	Y15	Z15	X16	Y16	Z16	X17	Y17	Z17	X18	Y18	Z18	X19	Y19	Z19	X20	Y20	Z20	X21	Y21	Z21	X22	Y22	Z22	X23	Y23	Z23	X24	Y24	Z24	X25	Y25	Z25	X26	Y26	Z26	X27	Y27	Z27	X28	Y28	Z28	X29	Y29	Z29	X30	Y30	Z30	X31	Y31	Z31	X32	Y32	Z32	X33	Y33	Z33	X34	Y34	Z34	X35	Y35	Z35	X36	Y36	Z36	X37	Y37	Z37

	84	0.78333	1487.393	626.820	-261.360	1490.633	637.043	-204.205	1495.104	641.303	-321.488	1481.577	338.794	-214.265	1616.811	359.247	-338.822	1405.490	57.552	-216.350	1535.209	93.050	-329.041	1535.787	701.962	-258.930	1532.366	698.704	-169.217	1539.207	705.221	-348.643	1397.050	717.892	-222.243	1405.107	715.205	-306.731	1477.357	337.378	-168.480	1614.188	361.059	-386.716	1468.466	343.975	-253.334	1642.121	363.277	-302.622	1403.572	57.823	-182.906	1517.738	97.411	-356.096	1407.293	58.360	-243.473	1539.124	95.419	-294.575	1474.286	1038.622	-239.300	1562.816	959.466	-208.014	1555.559	965.533	-295.838	1546.537	976.021	-242.153	1575.030	838.157	-259.235	1603.390	422.639	-224.665	1646.112	465.668	-447.975	1533.565	478.209	-176.137	1625.373	513.947	-363.212	1512.840	391.810	-178.922	1660.890	438.050	-351.006	1453.017	123.514	-116.890	1656.887	163.686	-337.355	1451.787	193.073	-173.883	1615.721	235.636	-343.163	1492.410	39.467	-214.104	1602.317	51.198	-347.376
	85	0.79167	1495.816	626.072	-261.385	1499.051	636.461	-204.304	1503.438	640.420	-321.600	1484.688	338.492	-214.279	1628.996	359.393	-337.710	1405.805	57.953	-216.500	1563.440	87.946	-330.802	1544.054	701.316	-259.228	1540.695	698.285	-169.437	1547.412	704.347	-349.019	1405.248	717.129	-222.338	1413.310	714.164	-306.830	1480.422	337.164	-168.496	1626.470	361.011	-385.616	1474.230	342.944	-252.359	1651.596	363.840	-300.469	1403.786	58.256	-183.062	1546.162	91.424	-358.108	1407.686	58.829	-243.668	1567.488	90.025	-296.443	1483.419	1037.798	-239.343	1571.816	958.239	-208.501	1564.261	964.404	-296.364	1555.469	974.887	-242.649	1583.389	836.926	-259.888	1607.848	420.135	-224.631	1656.712	465.838	-446.404	1540.185	477.081	-176.254	1634.877	514.211	-361.853	1519.507	391.223	-178.561	1670.611	438.493	-348.914	1453.666	123.480	-116.947	1680.650	166.535	-336.750	1453.146	193.013	-173.645	1635.113	235.436	-342.697	1492.585	39.449	-214.161	1633.441	50.615	-348.729
	86	0.80000	1504.351	625.203	-261.473	1507.538	635.786	-204.451	1511.863	639.383	-321.761	1487.838	338.203	-214.258	1640.694	359.284	-336.453	1406.159	58.376	-216.644	1591.995	83.327	-332.708	1552.410	700.541	-259.601	1549.096	697.785	-169.723	1555.725	703.297	-349.478	1413.500	716.278	-222.484	1421.589	712.997	-306.982	1483.535	336.979	-168.476	1638.117	360.612	-384.365	1478.413	342.752	-251.593	1661.569	363.870	-298.392	1404.009	58.718	-183.215	1574.914	85.968	-360.231	1408.142	59.323	-243.859	1595.938	84.964	-298.445	1492.612	1036.779	-239.412	1580.836	956.802	-209.024	1572.966	963.155	-296.928	1564.431	973.600	-243.185	1591.735	835.537	-260.705	1612.349	417.610	-224.610	1666.587	465.320	-444.807	1546.607	476.046	-176.232	1644.063	513.869	-360.512	1524.894	390.700	-178.226	1680.288	438.427	-347.073	1454.258	123.488	-116.978	1703.960	169.854	-336.319	1454.555	193.006	-173.493	1654.112	235.278	-342.311	1492.747	39.421	-214.214	1664.620	50.678	-350.167
	87	0.80833	1512.998	624.217	-261.609	1516.103	635.018	-204.648	1520.403	638.198	-321.971	1491.003	337.934	-214.191	1651.897	358.921	-335.070	1406.556	58.824	-216.774	1620.768	79.344	-334.700	1560.875	699.636	-260.039	1557.577	697.197	-170.072	1564.172	702.074	-350.007	1421.818	715.346	-222.693	1429.970	711.707	-307.194	1486.674	336.829	-168.409	1649.116	359.859	-382.980	1479.726	344.101	-251.324	1670.812	363.396	-296.236	1404.249	59.212	-183.356	1603.874	81.189	-362.403	1408.632	59.818	-244.064	1624.523	80.457	-300.588	1501.816	1035.592	-239.517	1589.916	955.226	-209.703	1581.666	961.773	-297.601	1573.416	972.171	-243.759	1600.150	834.021	-261.678	1616.932	415.082	-224.594	1675.745	464.124	-443.207	1553.098	475.077	-176.257	1652.952	512.946	-359.295	1527.990	390.124	-178.086	1689.372	437.724	-345.346	1454.804	123.546	-116.967	1726.700	173.688	-336.063	1455.986	193.034	-173.540	1672.719	235.319	-341.998	1492.897	39.389	-214.258	1695.718	51.503	-351.669
	88	0.81667	1521.745	623.112	-261.766	1524.758	634.153	-204.885	1529.074	636.869	-322.219	1494.178	337.683	-214.071	1662.608	358.294	-333.597	1406.995	59.306	-216.882	1649.610	76.136	-336.703	1569.460	698.604	-260.526	1566.147	696.519	-170.474	1572.773	700.689	-350.578	1430.218	714.331	-222.973	1438.476	710.296	-307.467	1489.828	336.713	-168.288	1659.481	358.751	-381.493	1482.113	344.787	-250.946	1679.271	362.453	-293.846	1404.511	59.747	-183.477	1632.882	77.213	-364.547	1409.078	60.327	-244.260	1653.392	76.717	-302.792	1510.993	1034.300	-239.668	1599.011	953.489	-210.484	1590.445	960.264	-298.321	1582.421	970.623	-244.377	1608.628	832.368	-262.767	1621.637	412.571	-224.570	1684.240	462.294	-441.618	1560.183	474.136	-176.421	1661.505	511.532	-358.134	1531.898	388.713	-177.999	1697.889	436.312	-343.579	1455.326	123.659	-116.903	1748.752	178.052	-335.952	1457.393	193.062	-173.557	1690.766	235.575	-341.670	1493.037	39.359	-214.288	1726.564	53.201	-353.194
	89	0.82500	1530.602	621.892	-261.926	1533.518	633.191	-205.135	1537.891	635.405	-322.477	1497.391	337.447	-213.896	1672.852	357.386	-332.080	1407.473	59.834	-216.958	1678.322	73.814	-338.624	1578.176	697.452	-261.032	1574.817	695.751	-170.910	1581.534	699.153	-351.153	1438.715	713.225	-223.324	1447.126	708.762	-307.796	1493.021	336.624	-168.112	1669.259	357.295	-379.945	1483.843	345.129	-250.557	1687.534	360.882	-291.393	1404.801	60.332	-183.569	1661.746	74.140	-366.577	1409.500	60.896	-244.380	1682.321	73.902	-304.965	1520.167	1032.943	-239.862	1608.096	951.606	-211.270	1599.285	958.682	-299.020	1591.449	968.981	-245.045	1617.104	830.612	-263.938	1626.485	410.087	-224.514	1692.186	459.905	-440.048	1565.228	472.655	-176.330	1669.508	509.506	-356.761	1534.575	387.933	-177.639	1705.988	434.321	-341.747	1455.855	123.830	-116.781	1770.010	182.924	-335.916	1458.740	193.114	-173.398	1708.132	236.168	-341.312	1493.171	39.338	-214.301	1756.953	55.860	-354.677
	90	0.83333	1539.580	620.558	-262.070	1542.393	632.131	-205.369	1546.858	633.816	-322.717	1500.679	337.221	-213.666	1682.673	356.176	-330.571	1407.986	60.417	-216.996	1706.665	72.447	-340.361	1587.022	696.188	-261.522	1583.591	694.893	-171.352	1590.453	697.482	-351.693	1447.330	712.012	-223.744	1455.932	707.108	-308.171	1496.284	336.555	-167.882	1678.540	355.507	-378.388	1489.892	341.308	-250.895	1695.464	358.668	-289.095	1405.124	60.974	-183.623	1690.242	72.025	-368.403	1409.964	61.550	-244.368	1711.058	72.314	-307.019	1529.357	1031.484	-240.150	1617.163	949.717	-212.070	1608.108	957.057	-299.735	1600.514	967.260	-245.759	1625.603	828.835	-265.072	1631.476	407.631	-224.393	1699.755	457.057	-438.503	1565.610	470.032	-175.762	1677.012	506.859	-355.279	1538.672	387.240	-177.319	1713.620	431.837	-339.972	1456.428	124.053	-116.604	1790.373	188.235	-335.851	1460.132	193.229	-173.127	1724.905	237.117	-340.912	1493.307	39.331	-214.295	1786.649	59.523	-356.022
	91	0.84167	1548.691	619.116	-262.165	1551.386	630.969	-205.569	1555.984	632.115	-322.918	1504.099	336.996	-213.384	1692.131	354.651	-329.130	1408.529	61.063	-216.989	1734.372	72.045	-341.810	1595.998	694.822	-261.967	1592.463	693.941	-171.772	1599.532	695.703	-352.162	1456.082	710.677	-224.222	1464.897	705.339	-308.579	1499.663	336.492	-167.602	1687.446	353.421	-376.885	1491.389	345.054	-250.059	1702.881	355.869	-287.081	1405.489	61.680	-183.633	1718.129	70.879	-369.936	1410.410	62.300	-244.301	1739.265	71.966	-308.754	1538.555	1029.903	-240.571	1626.268	947.858	-212.938	1616.959	955.385	-300.529	1609.625	965.482	-246.514	1634.254	827.056	-266.182	1636.612	405.195	-224.169	1707.171	453.876	-436.985	1576.658	470.105	-176.054	1684.155	503.709	-353.869	1543.306	386.484	-177.152	1720.832	428.869	-338.329	1457.084	124.322	-116.382	1809.762	193.874	-335.638	1461.668	193.449	-172.868	1740.992	238.201	-340.561	1493.449	39.344	-214.268	1815.397	64.159	-357.113
	92	0.85000	1557.941	617.576	-262.179	1560.499	629.703	-205.724	1565.282	630.324	-323.070	1507.722	336.752	-213.060	1701.301	352.819	-327.810	1409.106	61.779	-216.935	1761.164	72.552	-342.878	1605.105	693.366	-262.341	1601.429	692.888	-172.142	1608.781	693.843	-352.540	1464.985	709.206	-224.741	1474.019	703.464	-309.009	1503.213	336.419	-167.282	1696.121	351.095	-375.498	1494.930	346.420	-249.815	1709.759	352.454	-285.500	1405.904	62.457	-183.595	1745.156	70.650	-371.098	1410.844	63.151	-244.259	1766.538	72.590	-309.979	1547.782	1028.219	-241.104	1635.485	945.960	-213.854	1625.861	953.658	-301.382	1618.773	963.675	-247.328	1643.072	825.240	-267.337	1641.898	402.766	-223.805	1714.681	450.503	-435.493	1584.441	469.363	-176.140	1691.059	500.158	-352.458	1547.968	385.806	-177.039	1727.711	425.467	-336.807	1457.861	124.626	-116.126	1828.116	199.689	-335.162	1463.273	193.777	-172.592	1756.786	239.581	-340.385	1493.605	39.376	-214.224	1842.941	69.650	-357.827
